<svg xmlns="http://www.w3.org/2000/svg" version="1.1" xmlns:xlink="http://www.w3.org/1999/xlink" xmlns:svgjs="http://svgjs.dev/svgjs" width="1500" height="935" viewBox="0 0 1500 935"><g transform="matrix(1,0,0,1,-0.9090909090909918,0.3785425101214628)"><svg viewBox="0 0 396 247" data-background-color="#ffffff" preserveAspectRatio="xMidYMid meet" height="935" width="1500" xmlns="http://www.w3.org/2000/svg" xmlns:xlink="http://www.w3.org/1999/xlink"><g id="tight-bounds" transform="matrix(1,0,0,1,0.2400000000000091,-0.09999999999999432)"><svg viewBox="0 0 395.52 247.2" height="247.2" width="395.52"><g><svg></svg></g><g><svg viewBox="0 0 395.52 247.2" height="247.2" width="395.52"><mask id="ff22f26f-ac94-413f-a51b-181ff2ccb231"><rect width="640" height="400" fill="white"></rect><g transform="matrix(1,0,0,1,39.55199999999999,52.632890774125144)"><svg viewBox="0 0 316.416 141.9342184517497" height="141.9342184517497" width="316.416"><g><svg viewBox="0 0 316.416 141.9342184517497" height="141.9342184517497" width="316.416"><g><svg viewBox="0 0 316.416 141.9342184517497" height="141.9342184517497" width="316.416"><g><svg viewBox="0 0 316.416 141.9342184517497" height="141.9342184517497" width="316.416"><g id="SvgjsG1048"><svg viewBox="0 0 316.416 141.9342184517497" height="141.9342184517497" width="316.416" id="SvgjsSvg1047"><g><svg viewBox="0 0 316.416 141.9342184517497" height="141.9342184517497" width="316.416"><g transform="matrix(1,0,0,1,0,0)"><svg width="316.416" viewBox="-4.65 -39 95.29 43.3" height="141.9342184517497" data-palette-color="#ff5858"><path d="M18.35-20.85L18.35-20.85Q18.35-19.15 17.63-18.18 16.9-17.2 15.7-17.2L15.7-17.2Q15.3-17.2 14.85-17.35 14.4-17.5 13.95-17.8L13.95-17.8Q14.25-18.6 14.4-19.35 14.55-20.1 14.55-20.75L14.55-20.75Q14.55-21.75 14.2-22.28 13.85-22.8 13.15-22.8L13.15-22.8Q10.95-22.8 8.85-17.73 6.75-12.65 6.75-8.1L6.75-8.1Q6.75-5.8 7.53-4.85 8.3-3.9 10.35-3.9L10.35-3.9Q12.7-3.9 14.68-4.98 16.65-6.05 19.2-8.95L19.2-8.95 20.9-8.95Q18-4.25 14.6-1.98 11.2 0.3 7.15 0.3L7.15 0.3Q3.3 0.3 1.33-1.7-0.65-3.7-0.65-7.65L-0.65-7.65Q-0.65-10.5 0.23-13.7 1.1-16.9 2.65-19.4L2.65-19.4Q4.5-22.4 7.08-23.93 9.65-25.45 12.8-25.45L12.8-25.45Q15.55-25.45 16.95-24.28 18.35-23.1 18.35-20.85ZM31.75-5.35L31.75-5.35Q31.75-6.25 31.97-7.6 32.2-8.95 32.9-11.9L32.9-11.9Q33.6-14.75 33.8-16 34-17.25 34-18.1L34-18.1Q34-19.35 33.52-20 33.05-20.65 32.15-20.65L32.15-20.65Q30.95-20.65 29.82-19.23 28.7-17.8 28.35-16.25L28.35-16.25 24.9 0 17.7 0 24.95-34 32.35-35 29.65-22.4Q30.9-23.8 32.35-24.5 33.8-25.2 35.5-25.2L35.5-25.2Q38.15-25.2 39.6-23.75 41.05-22.3 41.05-19.55L41.05-19.55Q41.05-18.4 40.77-16.82 40.5-15.25 39.7-12L39.7-12Q39.05-9.45 38.85-8.4 38.65-7.35 38.65-6.65L38.65-6.65Q38.65-5.6 39.15-5.08 39.65-4.55 40.65-4.55L40.65-4.55Q41.9-4.55 42.8-5.4 43.7-6.25 44.85-8.95L44.85-8.95 46.95-8.95Q45.35-4.3 43.07-2 40.8 0.3 37.65 0.3L37.65 0.3Q34.85 0.3 33.3-1.23 31.75-2.75 31.75-5.35ZM61.09-22.7L61.09-22.7 61.09-22.35 61.64-25 68.84-25 65.25-8Q65.14-7.55 65.09-7.18 65.05-6.8 65.05-6.4L65.05-6.4Q65.05-5.3 65.55-4.78 66.05-4.25 67.09-4.25L67.09-4.25Q68.39-4.25 69.44-5.48 70.5-6.7 71.14-8.95L71.14-8.95 73.25-8.95Q71.64-4.35 69.09-2.02 66.55 0.3 63.2 0.3L63.2 0.3Q61.05 0.3 59.77-0.9 58.49-2.1 58.3-4.3L58.3-4.3Q56.74-2 54.87-0.85 52.99 0.3 50.84 0.3L50.84 0.3Q47.74 0.3 45.97-1.8 44.2-3.9 44.2-7.75L44.2-7.75Q44.2-10.55 45.05-13.6 45.89-16.65 47.39-19.15L47.39-19.15Q49.24-22.1 51.7-23.68 54.14-25.25 57.05-25.25L57.05-25.25Q58.99-25.25 60.05-24.58 61.09-23.9 61.09-22.7ZM58.24-8.95L60.64-20.25Q60.64-21 60.09-21.58 59.55-22.15 58.59-22.15L58.59-22.15Q55.84-22.15 53.72-17.55 51.59-12.95 51.59-8.45L51.59-8.45Q51.59-6.5 52.14-5.53 52.7-4.55 54.09-4.55L54.09-4.55Q55.39-4.55 56.62-5.8 57.84-7.05 58.24-8.95L58.24-8.95ZM72.54-23L72.94-25 74.59-25 76.09-31.9 83.49-32.9 81.79-25 84.79-25 84.39-23 81.39-23 78.19-8Q78.09-7.55 78.04-7.18 77.99-6.8 77.99-6.4L77.99-6.4Q77.99-5.4 78.47-4.98 78.94-4.55 80.04-4.55L80.04-4.55Q81.44-4.55 82.69-5.78 83.94-7 84.54-8.95L84.54-8.95 86.64-8.95Q85.04-4.4 82.34-2.05 79.64 0.3 76.14 0.3L76.14 0.3Q73.64 0.3 72.22-1.28 70.79-2.85 70.79-5.7L70.79-5.7Q70.79-6.35 70.89-7.18 70.99-8 71.19-8.95L71.19-8.95 74.19-23 72.54-23Z" opacity="1" transform="matrix(1,0,0,1,0,0)" fill="black" class="wordmark-text-0" id="SvgjsPath1046" stroke-width="7" stroke="black" stroke-linejoin="round"></path></svg></g></svg></g></svg></g></svg></g></svg></g></svg></g></svg></g></mask><g transform="matrix(1,0,0,1,39.55199999999999,52.632890774125144)"><svg viewBox="0 0 316.416 141.9342184517497" height="141.9342184517497" width="316.416"><g><svg viewBox="0 0 316.416 141.9342184517497" height="141.9342184517497" width="316.416"><g><svg viewBox="0 0 316.416 141.9342184517497" height="141.9342184517497" width="316.416"><g><svg viewBox="0 0 316.416 141.9342184517497" height="141.9342184517497" width="316.416"><g id="textblocktransform"><svg viewBox="0 0 316.416 141.9342184517497" height="141.9342184517497" width="316.416" id="textblock"><g><svg viewBox="0 0 316.416 141.9342184517497" height="141.9342184517497" width="316.416"><g transform="matrix(1,0,0,1,0,0)"><svg width="316.416" viewBox="-4.65 -39 95.29 43.3" height="141.9342184517497" data-palette-color="#ff5858"><path d="M18.35-20.85L18.35-20.85Q18.35-19.15 17.63-18.18 16.9-17.2 15.7-17.2L15.7-17.2Q15.3-17.2 14.85-17.35 14.4-17.5 13.95-17.8L13.95-17.8Q14.25-18.6 14.4-19.35 14.55-20.1 14.55-20.75L14.55-20.75Q14.55-21.75 14.2-22.28 13.85-22.8 13.15-22.8L13.15-22.8Q10.95-22.8 8.85-17.73 6.75-12.65 6.75-8.1L6.75-8.1Q6.75-5.8 7.53-4.85 8.3-3.9 10.35-3.9L10.35-3.9Q12.7-3.9 14.68-4.98 16.65-6.05 19.2-8.95L19.2-8.95 20.9-8.95Q18-4.25 14.6-1.98 11.2 0.3 7.15 0.3L7.15 0.3Q3.3 0.3 1.33-1.7-0.65-3.7-0.65-7.65L-0.65-7.65Q-0.65-10.5 0.23-13.7 1.1-16.9 2.65-19.4L2.65-19.4Q4.5-22.4 7.08-23.93 9.65-25.45 12.8-25.45L12.8-25.45Q15.55-25.45 16.95-24.28 18.35-23.1 18.35-20.85ZM31.75-5.35L31.75-5.35Q31.75-6.25 31.97-7.6 32.2-8.95 32.9-11.9L32.9-11.9Q33.6-14.75 33.8-16 34-17.25 34-18.1L34-18.1Q34-19.35 33.52-20 33.05-20.65 32.15-20.65L32.15-20.65Q30.95-20.65 29.82-19.23 28.7-17.8 28.35-16.25L28.35-16.25 24.9 0 17.7 0 24.95-34 32.35-35 29.65-22.4Q30.9-23.8 32.35-24.5 33.8-25.2 35.5-25.2L35.5-25.2Q38.15-25.2 39.6-23.75 41.05-22.3 41.05-19.55L41.05-19.55Q41.05-18.4 40.77-16.82 40.5-15.25 39.7-12L39.7-12Q39.05-9.45 38.85-8.4 38.65-7.35 38.65-6.65L38.65-6.65Q38.65-5.6 39.15-5.08 39.65-4.55 40.65-4.55L40.65-4.55Q41.9-4.55 42.8-5.4 43.7-6.25 44.85-8.95L44.85-8.95 46.95-8.95Q45.35-4.3 43.07-2 40.8 0.3 37.65 0.3L37.65 0.3Q34.85 0.3 33.3-1.23 31.75-2.75 31.75-5.35ZM61.09-22.7L61.09-22.7 61.09-22.35 61.64-25 68.84-25 65.25-8Q65.14-7.55 65.09-7.18 65.05-6.8 65.05-6.4L65.05-6.4Q65.05-5.3 65.55-4.78 66.05-4.25 67.09-4.25L67.09-4.25Q68.39-4.25 69.44-5.48 70.5-6.7 71.14-8.95L71.14-8.95 73.25-8.95Q71.64-4.35 69.09-2.02 66.55 0.3 63.2 0.3L63.2 0.3Q61.05 0.3 59.77-0.9 58.49-2.1 58.3-4.3L58.3-4.3Q56.74-2 54.87-0.85 52.99 0.3 50.84 0.3L50.84 0.3Q47.74 0.3 45.97-1.8 44.2-3.9 44.2-7.75L44.2-7.75Q44.2-10.55 45.05-13.6 45.89-16.65 47.39-19.15L47.39-19.15Q49.24-22.1 51.7-23.68 54.14-25.25 57.05-25.25L57.05-25.25Q58.99-25.25 60.05-24.58 61.09-23.9 61.09-22.7ZM58.24-8.95L60.64-20.25Q60.64-21 60.09-21.58 59.55-22.15 58.59-22.15L58.59-22.15Q55.84-22.15 53.72-17.55 51.59-12.95 51.59-8.45L51.59-8.45Q51.59-6.5 52.14-5.53 52.7-4.55 54.09-4.55L54.09-4.55Q55.39-4.55 56.62-5.8 57.84-7.05 58.24-8.95L58.24-8.95ZM72.54-23L72.94-25 74.59-25 76.09-31.9 83.49-32.9 81.79-25 84.79-25 84.39-23 81.39-23 78.19-8Q78.09-7.55 78.04-7.18 77.99-6.8 77.99-6.4L77.99-6.4Q77.99-5.4 78.47-4.98 78.94-4.55 80.04-4.55L80.04-4.55Q81.44-4.55 82.69-5.78 83.94-7 84.54-8.95L84.54-8.95 86.64-8.95Q85.04-4.4 82.34-2.05 79.64 0.3 76.14 0.3L76.14 0.3Q73.64 0.3 72.22-1.28 70.79-2.85 70.79-5.7L70.79-5.7Q70.79-6.35 70.89-7.18 70.99-8 71.19-8.95L71.19-8.95 74.19-23 72.54-23Z" opacity="1" transform="matrix(1,0,0,1,0,0)" fill="#ff5858" class="wordmark-text-0" data-fill-palette-color="primary" id="text-0"></path></svg></g></svg></g></svg></g></svg></g></svg></g></svg></g></svg></g><g mask="url(#ff22f26f-ac94-413f-a51b-181ff2ccb231)"><g transform="matrix(2.4767676767676763, 0, 0, 2.4767676767676763, 111.07313131313133, 1)"><svg xmlns="http://www.w3.org/2000/svg" xmlns:xlink="http://www.w3.org/1999/xlink" version="1.1" x="0" y="0" viewBox="17 1 70 99.00000000000001" enable-background="new 0 0 100 100" xml:space="preserve" width="70" height="99.00000000000001" class="icon-none" data-fill-palette-color="accent" id="none"><g fill="#ff5858" data-fill-palette-color="accent"><path d="M37.25 83.873c0-0.928 0.748-1.623 1.633-1.623h4.027c0.877 0 1.59 0.695 1.59 1.623v4.24c0 0.926-0.713 1.637-1.59 1.637h-4.027c-0.885 0-1.633-0.711-1.633-1.637V83.873z" fill="#ff5858" data-fill-palette-color="accent"></path><path d="M26 83.873c0-0.928 0.826-1.623 1.693-1.623h4.039c0.881 0 1.518 0.695 1.518 1.623v4.24c0 0.926-0.637 1.637-1.518 1.637h-4.039c-0.867 0-1.693-0.711-1.693-1.637V83.873z" fill="#ff5858" data-fill-palette-color="accent"></path><path d="M48 83.873c0-0.928 0.779-1.623 1.652-1.623h4.043c0.865 0 1.555 0.695 1.555 1.623v4.24c0 0.926-0.689 1.637-1.555 1.637h-4.043c-0.873 0-1.652-0.711-1.652-1.637V83.873z" fill="#ff5858" data-fill-palette-color="accent"></path><path fill="#ff5858" d="M64.75 46.5h2.27l7.668 7.695c0.718 0.717 1.677 1.111 2.652 1.111 0.483 0 0.926-0.086 1.39-0.278C80.131 54.447 81 53.088 81 51.57v-5.881c1.25-0.495 2.128-1.19 2.998-2.061C85.856 41.771 87 39.34 87 36.96V25.271c0-2.38-1.1-4.774-2.958-6.633-1.858-1.859-4.323-2.889-6.702-2.889h-2.09v-5.09c0-2.38-1.068-4.844-2.928-6.703C70.464 2.1 68.03 1 65.65 1H42.273c-2.38 0-4.775 1.1-6.635 2.958C33.781 5.816 32.75 8.28 32.75 10.66V15h-6.791C21.008 15 17 19.084 17 24.173v66.546c0 5.09 4.008 9.281 8.959 9.281h29.859c4.957 0 8.932-4.191 8.932-9.281V46.5M53.962 42.75C51.04 42.75 48 39.882 48 36.96c0-0.169 0-0.353 0-0.541L52.594 32H65.65c2.38 0 4.813-1.094 6.672-2.953 1.859-1.858 2.928-4.318 2.928-6.697V19.5c1 0 1.667 0 2.09 0 2.922 0 5.91 2.85 5.91 5.771s0 8.766 0 11.688c0 2.922-3 5.845-6 5.845v8.766l-8.678-8.82C63.459 42.75 55.424 42.75 53.962 42.75zM25.959 19.25h6.791v3.1c0 0.713 0.062 1.484 0.24 2.189l-0.016-0.047L28.678 24.5c-1.316 0-2.428 1.108-2.428 2.502v48.975c0 1.383 1.133 2.523 2.449 2.523H53.09c1.311 0 2.41-1.141 2.41-2.523L55.485 46.5H60.5v44.219c0 2.77-2.041 5.031-4.682 5.031H25.959c-2.629 0-4.709-2.262-4.709-5.031V24.173C21.25 21.397 23.33 19.25 25.959 19.25zM71.5 22.35c0 2.922-2.928 5.9-5.85 5.9-1.461 0-9.496 0-14.61 0l-8.79 8.71v-8.71h0.023c-0.008 0-0.016-0.001-0.023-0.001-1.139-0.006-2.264-0.464-3.214-1.192-0.878-0.673-1.606-1.577-2.054-2.572C36.676 23.8 36.5 23.072 36.5 22.35c0-2.923 0-8.768 0-11.689s2.852-5.91 5.773-5.91 20.455 0 23.377 0 5.85 2.988 5.85 5.91S71.5 19.427 71.5 22.35z" data-fill-palette-color="accent"></path></g></svg></g></g></svg></g><defs></defs></svg><rect width="395.52" height="247.2" fill="none" stroke="none" visibility="hidden"></rect></g></svg></g></svg>